<?xml version="1.0" standalone="no"?>
<!DOCTYPE svg PUBLIC "-//W3C//DTD SVG 20010904//EN" "http://www.w3.org/TR/2001/REC-SVG-20010904/DTD/svg10.dtd">
<svg version="1.0" xmlns="http://www.w3.org/2000/svg"
    width="912.000000pt" height="912.000000pt" viewBox="0 0 912.000000 912.000000"
    preserveAspectRatio="xMidYMid meet">
    <g transform="translate(0.000000,912.000000) scale(0.100000,-0.100000)"
        fill="#000000" stroke="none">
        <path
            d="M8025 9019 c8 -81 4 -679 -5 -679 -3 0 -6 -19 -6 -43 -1 -39 -10
-136 -20 -217 -2 -19 -6 -55 -8 -80 -3 -25 -5 -45 -6 -45 -2 0 -9 -37 -14 -80
-3 -22 -7 -53 -10 -70 -11 -59 -19 -100 -23 -115 -1 -8 -5 -29 -7 -47 -3 -18
-9 -49 -15 -70 -5 -21 -12 -51 -15 -68 -4 -30 -46 -191 -65 -253 -5 -18 -10
-35 -10 -37 -2 -15 -15 -61 -20 -70 -3 -5 -6 -14 -7 -20 -2 -13 -53 -175 -61
-195 -3 -8 -7 -19 -9 -25 -6 -22 -85 -232 -99 -262 -8 -17 -15 -34 -15 -37 0
-3 -11 -29 -24 -58 -13 -29 -39 -87 -58 -128 -19 -41 -46 -100 -62 -129 l-28
-55 -17 35 c-29 59 -113 211 -153 277 -21 34 -38 67 -38 72 0 6 -4 10 -10 10
-5 0 -10 5 -10 11 0 10 -216 339 -229 349 -4 3 -18 21 -31 40 -14 19 -28 40
-32 45 -5 6 -31 39 -59 75 -80 103 -112 141 -275 328 -69 79 -324 326 -432
420 -30 26 -63 55 -73 64 -33 31 -258 208 -264 208 -3 0 -17 11 -31 25 -18 19
-31 23 -53 19 -25 -5 -29 -3 -34 23 -5 22 -28 42 -104 92 -54 36 -121 79 -148
98 -28 18 -55 33 -62 33 -6 0 -13 4 -15 8 -3 7 -28 23 -133 82 -178 102 -387
205 -550 274 -22 9 -53 23 -68 31 -34 18 -57 19 -94 3 -15 -6 -30 -12 -33 -13
-3 0 -23 -9 -45 -19 -22 -10 -67 -30 -100 -44 -33 -15 -63 -31 -67 -37 -4 -5
-8 -6 -8 -2 0 4 -30 -8 -67 -28 -36 -19 -72 -35 -80 -35 -7 0 -13 -4 -13 -8 0
-4 -41 -28 -90 -52 -49 -24 -90 -48 -90 -52 0 -4 -6 -8 -12 -8 -7 0 -69 -34
-138 -76 -69 -42 -141 -86 -160 -97 -19 -12 -41 -27 -48 -34 -8 -7 -23 -18
-35 -25 -28 -15 -259 -178 -272 -192 -5 -6 -35 -30 -65 -52 -30 -23 -66 -51
-80 -63 -14 -11 -35 -29 -46 -39 -188 -154 -410 -371 -610 -593 -16 -19 -61
-72 -99 -119 -37 -47 -71 -87 -74 -90 -17 -13 -209 -282 -293 -410 -107 -163
-296 -490 -283 -490 2 0 -3 -9 -12 -20 -17 -19 -19 -16 -71 93 -53 110 -75
157 -76 167 -1 3 -13 32 -27 65 -24 54 -39 91 -44 105 -1 3 -7 19 -14 35 -6
17 -19 50 -27 75 -9 25 -20 54 -25 65 -13 32 -79 234 -83 258 -3 12 -5 23 -7
25 -1 1 -2 5 -4 10 -1 4 -4 14 -8 22 -3 8 -9 29 -13 45 -4 17 -8 35 -10 40 -1
6 -16 61 -32 123 -17 61 -28 112 -26 112 3 0 0 8 -5 18 -5 10 -12 36 -15 58
-3 21 -11 62 -16 89 -6 28 -13 59 -14 70 -2 11 -6 34 -9 50 -7 32 -15 87 -23
145 -2 19 -6 51 -9 70 -12 89 -17 128 -20 170 -2 25 -6 70 -9 100 -16 177 -23
601 -12 733 2 26 1 47 -3 47 -7 0 -32 -28 -155 -177 -42 -51 -76 -95 -76 -98
0 -4 -6 -12 -12 -19 -7 -7 -22 -25 -33 -40 -11 -16 -25 -33 -30 -40 -6 -6 -39
-52 -73 -102 -69 -101 -143 -253 -222 -454 -29 -74 -60 -151 -69 -170 -12 -27
-16 -68 -15 -180 0 -141 12 -389 19 -400 1 -3 6 -36 9 -75 4 -38 9 -83 12
-100 2 -16 7 -50 9 -75 3 -25 8 -56 10 -70 3 -14 8 -41 11 -60 2 -19 8 -48 11
-65 4 -16 8 -37 9 -45 11 -62 15 -86 34 -170 23 -102 48 -206 55 -230 12 -41
36 -127 40 -140 9 -35 65 -210 84 -265 12 -33 29 -80 37 -105 9 -25 21 -58 29
-75 7 -16 36 -86 65 -155 75 -181 214 -460 306 -615 16 -27 34 -59 41 -70 35
-59 41 -84 32 -122 -15 -60 -61 -305 -64 -338 -2 -16 -6 -43 -8 -60 -9 -48
-27 -185 -26 -193 1 -4 0 -9 -1 -12 -1 -3 -3 -25 -5 -50 -2 -25 -6 -76 -9
-115 -12 -142 -16 -254 -16 -420 1 -259 6 -334 27 -358 17 -19 17 -20 0 -14
-16 6 -17 1 -13 -51 2 -31 5 -57 6 -57 1 0 3 -29 5 -64 2 -35 7 -80 10 -100 3
-20 8 -49 11 -66 2 -16 6 -50 9 -75 2 -25 12 -81 20 -125 9 -44 17 -93 20
-110 2 -16 6 -41 9 -55 3 -14 8 -36 11 -50 23 -112 22 -109 25 -112 1 -2 4
-16 6 -32 3 -16 12 -53 20 -83 8 -29 21 -79 29 -110 14 -53 30 -104 43 -143 3
-8 6 -19 7 -25 2 -5 13 -41 26 -80 13 -38 24 -72 24 -75 1 -3 5 -13 8 -22 16
-42 20 -54 22 -63 4 -17 74 -195 90 -229 8 -17 30 -41 48 -51 31 -19 31 -20 9
-23 -18 -3 -22 -8 -17 -20 4 -9 10 -25 12 -35 3 -9 9 -17 12 -17 4 0 8 -6 8
-12 0 -16 149 -323 175 -360 10 -14 18 -33 18 -42 0 -9 4 -16 10 -16 5 0 12
-11 16 -25 3 -14 10 -25 15 -25 5 0 9 -4 9 -10 0 -22 254 -423 301 -476 11
-11 19 -23 19 -27 0 -7 22 -36 48 -62 6 -8 12 -16 12 -20 0 -4 6 -13 13 -20
15 -17 19 -22 82 -104 28 -36 59 -74 70 -86 11 -12 39 -43 61 -71 23 -27 50
-59 61 -70 16 -19 91 -49 100 -40 2 1 -8 20 -22 40 -14 20 -25 38 -25 40 0 2
-23 42 -50 90 -28 48 -50 89 -50 92 0 3 -9 19 -21 35 -11 16 -17 29 -13 29 4
0 0 8 -8 17 -8 10 -25 41 -38 68 -13 28 -43 93 -67 145 -47 100 -72 157 -72
165 0 3 -8 20 -17 37 -29 57 -145 368 -159 428 -2 8 -10 34 -19 58 -8 23 -13
42 -9 42 3 0 1 6 -5 13 -6 7 -13 24 -16 37 -3 14 -15 59 -26 100 -26 93 -31
110 -35 135 -2 11 -6 30 -9 42 -11 43 -14 58 -34 148 -11 50 -20 97 -20 105
-1 8 -5 35 -11 60 -5 25 -12 65 -15 90 -4 25 -9 58 -12 73 -8 38 -11 68 -19
152 -4 39 -8 81 -11 95 -2 14 -6 63 -10 110 -3 47 -7 110 -10 140 -6 72 -5
483 0 583 6 92 15 208 21 257 2 19 7 62 11 95 10 91 12 107 19 150 3 22 13 78
20 125 13 75 22 124 29 155 2 6 6 31 11 58 4 26 10 47 14 47 4 0 35 -28 68
-62 120 -125 300 -291 413 -382 25 -21 65 -54 89 -74 24 -20 48 -39 54 -41 5
-2 18 -11 28 -20 23 -21 37 -32 79 -61 19 -13 37 -27 40 -30 7 -9 261 -180
267 -180 2 0 19 -11 37 -25 18 -14 36 -25 39 -25 3 0 25 -12 49 -27 74 -48 82
-53 108 -65 14 -7 27 -15 30 -19 3 -3 19 -12 35 -21 350 -179 398 -202 570
-273 50 -20 99 -41 110 -46 11 -5 47 -18 80 -29 33 -12 69 -26 80 -31 11 -5
29 -11 40 -13 11 -2 44 -13 73 -25 28 -11 52 -19 52 -17 0 2 23 -4 50 -15 27
-10 50 -17 50 -14 0 3 9 1 21 -5 11 -6 28 -13 37 -15 9 -1 43 -10 74 -20 54
-15 102 -16 138 -3 8 3 44 14 80 23 75 20 276 82 305 95 11 5 74 29 140 53 66
25 163 63 215 86 52 22 101 41 108 41 6 0 12 4 12 9 0 8 29 23 50 26 11 1 312
156 347 178 21 13 43 26 48 28 6 2 47 27 93 54 46 28 91 55 100 60 51 30 260
172 276 187 11 10 28 20 38 24 10 3 18 10 18 15 0 5 6 9 14 9 8 0 16 4 18 8 2
4 44 39 93 77 50 37 106 82 125 99 20 17 58 49 84 71 85 71 168 147 295 273
68 67 126 120 128 118 10 -9 43 -178 38 -187 -4 -5 -2 -9 2 -9 5 0 9 -10 10
-22 1 -13 7 -52 13 -88 5 -36 13 -85 16 -110 3 -25 7 -58 10 -75 2 -16 6 -52
9 -80 2 -27 7 -66 9 -85 27 -217 27 -799 1 -1035 -2 -16 -7 -57 -10 -90 -4
-33 -9 -73 -10 -90 -1 -16 -3 -30 -5 -30 -1 0 -3 -16 -5 -35 -2 -35 -11 -94
-20 -140 -3 -14 -8 -41 -11 -60 -5 -38 -12 -73 -19 -105 -2 -11 -14 -63 -25
-115 -12 -52 -23 -99 -24 -105 -2 -5 -6 -28 -11 -50 -4 -22 -10 -44 -14 -50
-3 -5 -7 -19 -9 -30 -5 -32 -9 -49 -15 -65 -3 -8 -20 -62 -37 -120 -17 -58
-35 -114 -40 -125 -5 -11 -19 -49 -30 -85 -12 -35 -28 -77 -36 -92 -8 -15 -14
-30 -14 -33 -1 -6 -9 -33 -23 -70 -7 -16 -11 -33 -9 -37 1 -5 -2 -8 -6 -8 -6
0 -29 -49 -37 -80 -2 -6 -28 -64 -62 -138 -14 -31 -27 -59 -28 -62 -2 -8 -148
-292 -167 -325 -9 -16 -23 -41 -30 -55 -7 -14 -27 -47 -44 -75 -17 -27 -36
-60 -43 -72 l-11 -22 47 14 c26 8 50 20 54 27 4 7 20 27 36 43 15 17 46 52 68
79 22 27 45 54 50 60 6 6 24 29 40 51 17 22 35 45 41 50 6 6 24 28 40 50 16
22 34 45 39 51 6 6 16 20 23 30 7 11 38 55 69 99 80 114 183 274 183 285 0 6
4 10 9 10 5 0 11 8 15 18 3 9 14 31 24 47 72 116 244 455 306 600 21 50 44
104 51 120 8 17 21 50 30 75 9 25 23 61 30 80 21 54 28 75 30 80 0 3 23 70 49
150 26 80 49 152 51 161 2 9 13 48 24 86 18 59 35 130 77 318 5 22 8 42 30
160 8 44 17 96 20 115 2 19 7 46 9 60 6 29 12 73 20 150 3 30 8 71 10 90 2 19
7 70 10 112 6 72 5 77 -12 71 -17 -6 -17 -5 1 15 12 14 20 41 22 74 4 72 4
480 0 548 -12 178 -18 268 -22 295 -4 35 -15 129 -19 165 -1 14 -5 41 -9 60
-3 19 -8 49 -10 65 -9 64 -29 180 -40 230 -32 147 -33 155 -22 177 7 13 37 66
68 118 46 80 116 208 174 320 7 14 27 57 44 95 18 39 45 98 61 132 16 34 29
68 29 76 0 7 4 17 9 22 7 8 73 168 77 185 0 3 5 16 11 30 17 41 129 386 138
426 2 10 16 62 29 114 26 98 83 360 91 414 2 17 6 40 9 52 2 12 8 45 11 75 4
30 9 65 12 79 2 14 5 41 8 60 2 19 6 58 9 85 6 49 9 80 21 201 3 33 8 135 10
227 2 92 6 171 10 177 3 5 2 10 -4 10 -6 0 -6 11 -1 30 5 17 6 30 2 30 -4 0
-7 29 -6 65 0 43 -4 70 -13 77 -7 6 -13 14 -13 19 0 4 -17 36 -37 71 -21 35
-42 71 -48 80 -51 86 -111 178 -117 178 -5 0 -8 5 -8 11 0 6 -44 71 -97 146
-54 75 -102 143 -108 152 -5 8 -15 20 -21 26 -5 5 -28 33 -49 60 -22 28 -47
59 -55 69 -13 16 -95 112 -121 140 -5 6 -7 -10 -4 -35z m-3404 -1522 c20 -12
63 -37 95 -56 81 -48 338 -218 363 -242 11 -10 23 -19 26 -19 5 0 126 -90 135
-101 3 -3 28 -23 55 -44 28 -20 52 -40 55 -44 3 -4 19 -17 35 -30 114 -87 343
-305 503 -477 120 -130 126 -137 178 -199 27 -33 51 -62 54 -65 3 -3 17 -21
32 -42 15 -20 33 -42 41 -50 46 -48 297 -409 297 -428 0 -5 5 -10 10 -10 6 0
10 -6 10 -14 0 -8 4 -16 8 -18 4 -1 35 -50 69 -108 84 -144 100 -175 182 -334
l71 -139 -37 -46 c-21 -25 -40 -48 -43 -51 -3 -3 -20 -23 -39 -45 -161 -190
-460 -487 -623 -620 -7 -6 -38 -30 -68 -55 -30 -25 -60 -49 -68 -55 -7 -5 -18
-15 -25 -21 -13 -11 -99 -76 -181 -137 -28 -20 -61 -42 -73 -49 -13 -6 -23
-15 -23 -20 0 -4 -5 -8 -11 -8 -6 0 -29 -14 -50 -31 -21 -17 -39 -28 -39 -24
0 3 -10 -4 -22 -15 -13 -12 -42 -31 -65 -42 -24 -12 -43 -25 -43 -30 0 -4 -4
-8 -9 -8 -6 0 -56 -28 -113 -63 -57 -34 -148 -84 -203 -112 -55 -27 -102 -52
-105 -55 -10 -10 -145 -73 -157 -73 -7 0 -13 -4 -13 -8 0 -3 -10 -10 -22 -14
-29 -9 -26 -8 -73 -30 -22 -10 -42 -19 -45 -20 -26 -9 -68 -27 -81 -34 -17
-10 -66 -3 -75 10 -3 5 -13 9 -23 9 -10 0 -24 7 -31 15 -7 9 -15 13 -17 11 -6
-6 -62 18 -249 110 -88 42 -160 81 -162 85 -2 5 -9 9 -15 9 -32 0 -391 220
-598 367 -130 92 -348 261 -391 303 -8 8 -40 35 -69 60 -59 49 -439 427 -479
477 -14 17 -58 69 -98 116 -61 71 -72 90 -66 109 9 29 147 297 179 349 14 21
25 41 25 43 0 18 305 488 328 506 4 3 23 28 42 55 19 28 40 56 48 64 7 8 21
25 30 39 9 13 28 39 43 56 15 17 71 83 125 146 108 126 388 410 498 505 39 33
82 71 98 85 50 44 58 51 58 46 0 -2 13 8 28 22 34 32 36 34 182 143 63 48 160
116 215 153 55 36 105 69 110 74 6 4 17 11 25 15 8 4 58 34 110 67 52 32 97
59 100 59 3 0 21 -10 41 -22z m2203 -7136 c3 -4 -11 -7 -30 -8 -27 0 -32 2
-24 12 10 12 46 10 54 -4z" />
    </g>
</svg>